<svg width="2931" height="552" viewBox="0 0 2931 552" fill="none" xmlns="http://www.w3.org/2000/svg">
<path d="M328.374 26.9216V383.407C287.23 411.171 244.737 432.678 205.176 446.161V26.9216C205.176 22.2386 208.96 18.4581 213.642 18.4581H319.908C324.591 18.4581 328.374 22.2386 328.374 26.9216Z" fill="#2C3892"/>
<path d="M633.18 452.725V542.118C633.18 546.802 629.4 550.582 624.714 550.582H213.432C208.75 550.582 204.966 546.802 204.966 542.118V530.489C243.343 519.772 284.028 502.669 324.49 479.871C326.183 478.965 349.039 467.057 381.546 444.259H624.714C629.4 444.259 633.18 448.044 633.18 452.725Z" fill="#2C3892"/>
<path fill-rule="evenodd" clip-rule="evenodd" d="M573.349 59.9613C571.82 57.9783 570.073 56.2134 568.385 54.3833C568.882 51.6783 569.178 48.9005 569.178 46.0476C569.178 20.79 548.706 0.318211 523.448 0.318211C507.714 0.318211 493.846 8.26774 485.616 20.3638C444.035 17.8168 393.771 27.8195 340.445 49.4546V62.7766C393.352 42.2972 441.736 35.2451 477.857 43.2649C477.801 44.19 477.719 45.11 477.719 46.0476C477.719 71.3053 498.193 91.7796 523.448 91.7796C527.788 91.7796 531.964 91.1378 535.938 90.0097C552.068 133.989 528.951 199.795 477.521 266.237C474.081 265.642 470.569 265.271 466.961 265.271C432.786 265.271 405.09 292.971 405.09 327.144C405.09 332.087 405.729 336.86 406.827 341.467C395.686 351.408 383.976 361.176 371.714 370.673C238.499 473.841 91.4612 507.018 43.299 444.825C16.7253 410.515 25.8463 354.324 61.7086 293.522C64.4184 294.337 67.2307 294.909 70.2039 294.909C86.5716 294.909 99.84 281.639 99.84 265.271C99.84 258.455 97.4476 252.255 93.5793 247.249C118.731 215.222 150.371 183.118 187.376 153.313V139.74C147.389 171.082 112.812 205.079 84.5964 239.515C80.3198 237.118 75.4568 235.637 70.2039 235.637C53.8372 235.637 40.5689 248.903 40.5689 265.271C40.5689 273.805 44.2256 281.439 49.9973 286.844C-0.938966 366.029 -15.2443 442.17 20.377 488.163C68.4353 550.194 192.402 538.082 319.685 466.445L319.785 466.397C322.362 465.061 376.548 436.762 438.272 381.932C446.85 386.435 456.6 389.015 466.961 389.015C501.136 389.015 528.833 361.318 528.833 327.144C528.833 315.398 525.501 304.456 519.818 295.102C589.609 204.287 614.005 112.462 573.349 59.9613" fill="#F14624"/>
<path d="M686 465.741V358.503C686 346.625 688.28 335.5 692.84 325.129C697.364 314.795 703.432 305.785 711.044 298.099C718.657 290.413 727.648 284.308 738.019 279.785C748.353 275.262 759.459 273 771.338 273H814.2C826.115 273 837.239 275.262 847.573 279.785C857.907 284.308 866.917 290.413 874.603 298.099C882.326 305.785 888.449 314.795 892.973 325.129C897.496 335.5 899.758 346.625 899.758 358.503V465.741C899.758 477.656 897.496 488.781 892.973 499.115C888.449 509.448 882.326 518.422 874.603 526.034C866.917 533.684 857.944 539.77 847.684 544.293C837.387 548.817 826.225 551.078 814.2 551.078H771.338C759.459 551.078 748.353 548.817 738.019 544.293C727.648 539.77 718.657 533.684 711.044 526.034C703.432 518.422 697.364 509.448 692.84 499.115C688.28 488.781 686 477.656 686 465.741ZM750.045 358.503V465.741C750.045 471.551 752.067 476.571 756.113 480.8C760.195 484.993 765.27 487.089 771.338 487.089H814.2C820.304 487.089 825.416 484.993 829.535 480.8C833.691 476.571 835.768 471.551 835.768 465.741V358.503C835.768 352.693 833.727 347.71 829.645 343.554C825.563 339.435 820.415 337.376 814.2 337.376H771.338C765.27 337.376 760.195 339.435 756.113 343.554C752.067 347.71 750.045 352.693 750.045 358.503ZM915.424 465.741V358.503C915.424 346.625 917.704 335.5 922.265 325.129C926.788 314.795 932.856 305.785 940.468 298.099C948.081 290.413 957.073 284.308 967.443 279.785C977.777 275.262 988.883 273 1000.76 273H1043.62C1055.54 273 1066.66 275.262 1077 279.785C1087.33 284.308 1096.34 290.413 1104.03 298.099C1111.75 305.785 1117.87 314.795 1122.4 325.129C1126.92 335.5 1129.18 346.625 1129.18 358.503H1065.19C1065.19 352.693 1063.15 347.71 1059.07 343.554C1054.99 339.435 1049.84 337.376 1043.62 337.376H1000.76C994.694 337.376 989.619 339.435 985.537 343.554C981.492 347.71 979.469 352.693 979.469 358.503V465.741C979.469 471.551 981.492 476.571 985.537 480.8C989.619 484.993 994.694 487.089 1000.76 487.089H1043.62C1049.73 487.089 1054.84 484.993 1058.96 480.8C1063.11 476.571 1065.19 471.551 1065.19 465.741V444.227H1043.62V379.851H1129.18V444.227V465.741C1129.18 477.656 1126.92 488.781 1122.4 499.115C1117.87 509.448 1111.75 518.422 1104.03 526.034C1096.34 533.684 1087.37 539.77 1077.11 544.293C1066.81 548.817 1055.65 551.078 1043.62 551.078H1000.76C988.883 551.078 977.777 548.817 967.443 544.293C957.073 539.77 948.081 533.684 940.468 526.034C932.856 518.422 926.788 509.448 922.265 499.115C917.704 488.781 915.424 477.656 915.424 465.741ZM1208.89 551.078H1144.85L1219.15 273H1219.93H1283.53H1284.3L1358.61 551.078H1294.62L1251.76 391.491L1208.89 551.078ZM1438.32 551.078H1374.27V358.503C1374.27 346.625 1376.53 335.5 1381.06 325.129C1385.62 314.795 1391.7 305.785 1399.32 298.099C1406.93 290.413 1415.92 284.308 1426.29 279.785C1436.63 275.262 1447.73 273 1459.61 273H1502.47C1514.39 273 1525.51 275.262 1535.85 279.785C1546.18 284.308 1555.19 290.413 1562.88 298.099C1570.6 305.785 1576.72 314.795 1581.25 325.129C1585.77 335.5 1588.03 346.625 1588.03 358.503V551.078H1524.04V358.503C1524.04 352.693 1522 347.654 1517.92 343.388C1513.84 339.122 1508.69 336.989 1502.47 336.989H1459.61C1453.54 336.989 1448.47 339.122 1444.39 343.388C1440.34 347.654 1438.32 352.693 1438.32 358.503V551.078ZM1747.45 551.078H1683.41V273H1747.45H1811.61C1823.52 273 1834.65 275.262 1844.98 279.785C1855.32 284.308 1864.33 290.413 1872.01 298.099C1879.7 305.785 1885.82 314.795 1890.38 325.129C1894.9 335.5 1897.17 346.625 1897.17 358.503C1897.17 368.58 1895.51 378.178 1892.2 387.298C1888.89 396.419 1884.33 404.657 1878.52 412.012C1884.33 419.404 1888.89 427.678 1892.2 436.835C1895.51 446.029 1897.17 455.664 1897.17 465.741V551.078H1833.12V465.741C1833.12 459.673 1831.1 454.561 1827.05 450.405C1822.97 446.286 1817.82 444.227 1811.61 444.227H1747.45V551.078ZM1747.45 337.376V379.851H1811.61C1817.68 379.851 1822.79 377.81 1826.94 373.728C1831.06 369.646 1833.12 364.571 1833.12 358.503C1833.12 352.693 1831.1 347.71 1827.05 343.554C1822.97 339.435 1817.82 337.376 1811.61 337.376H1747.45ZM2056.53 551.078H1992.54V273H2056.53H2120.74C2132.66 273 2143.78 275.262 2154.12 279.785C2164.45 284.308 2173.46 290.413 2181.15 298.099C2188.83 305.785 2194.94 314.795 2199.46 325.129C2203.98 335.5 2206.25 346.625 2206.25 358.503V465.741C2206.25 477.656 2203.98 488.781 2199.46 499.115C2194.94 509.448 2188.83 518.422 2181.15 526.034C2173.46 533.684 2164.49 539.77 2154.23 544.293C2143.93 548.817 2132.77 551.078 2120.74 551.078H2056.53ZM2056.53 337.376V487.089H2120.74C2126.81 487.089 2131.92 484.993 2136.08 480.8C2140.2 476.571 2142.26 471.551 2142.26 465.741V358.503C2142.26 352.693 2140.23 347.71 2136.19 343.554C2132.11 339.435 2126.96 337.376 2120.74 337.376H2056.53ZM2285.96 551.078H2221.97L2296.27 273H2297.05H2360.65H2361.42L2435.67 551.078H2371.68L2328.82 391.491L2285.96 551.078ZM2482.06 551.078L2407.76 273H2471.75L2514.61 432.753L2557.47 273H2621.46L2547.21 551.078H2546.44H2482.84H2482.06ZM2701.17 551.078H2637.18V273H2701.17V551.078ZM2845.09 551.078H2716.89V487.089H2845.09C2851.16 486.831 2856.27 484.662 2860.43 480.58C2864.55 476.498 2866.61 471.551 2866.61 465.741C2866.61 459.673 2864.57 454.561 2860.48 450.405C2856.44 446.286 2851.31 444.227 2845.09 444.227H2802.23C2790.35 444.227 2779.23 441.965 2768.86 437.442C2758.52 432.919 2749.55 426.777 2741.94 419.017C2734.29 411.258 2728.2 402.211 2723.68 391.877C2719.16 381.506 2716.89 370.382 2716.89 358.503C2716.89 346.625 2719.16 335.5 2723.68 325.129C2728.2 314.795 2734.29 305.785 2741.94 298.099C2749.55 290.413 2758.52 284.308 2768.86 279.785C2779.23 275.262 2790.35 273 2802.23 273H2887.73V337.376H2802.23C2796.16 337.376 2791.09 339.435 2787.01 343.554C2782.92 347.71 2780.88 352.693 2780.88 358.503C2780.88 364.571 2782.92 369.646 2787.01 373.728C2791.09 377.81 2796.16 379.851 2802.23 379.851H2845.09C2856.97 379.851 2868.1 382.113 2878.47 386.636C2888.8 391.16 2897.81 397.32 2905.5 405.116C2913.18 412.949 2919.29 422.033 2923.81 432.367C2928.33 442.738 2930.6 453.862 2930.6 465.741C2930.6 477.656 2928.33 488.781 2923.81 499.115C2919.29 509.448 2913.18 518.422 2905.5 526.034C2897.81 533.684 2888.82 539.77 2878.52 544.293C2868.26 548.817 2857.12 551.078 2845.09 551.078Z" fill="#F14624"/>
</svg>
