<svg width="634" height="551" viewBox="0 0 634 551" fill="none" xmlns="http://www.w3.org/2000/svg">
<path d="M328.374 26.9216V383.407C287.23 411.171 244.737 432.678 205.176 446.161V26.9216C205.176 22.2386 208.96 18.4581 213.642 18.4581H319.908C324.591 18.4581 328.374 22.2386 328.374 26.9216Z" fill="#2C3892"/>
<path d="M633.18 452.725V542.118C633.18 546.802 629.4 550.582 624.714 550.582H213.432C208.75 550.582 204.966 546.802 204.966 542.118V530.489C243.343 519.772 284.028 502.669 324.49 479.871C326.183 478.965 349.039 467.057 381.546 444.259H624.714C629.4 444.259 633.18 448.044 633.18 452.725Z" fill="#2C3892"/>
<path fill-rule="evenodd" clip-rule="evenodd" d="M573.349 59.9613C571.82 57.9783 570.073 56.2134 568.385 54.3833C568.882 51.6783 569.178 48.9005 569.178 46.0476C569.178 20.79 548.706 0.318237 523.448 0.318237C507.714 0.318237 493.846 8.26777 485.616 20.3638C444.035 17.8168 393.771 27.8195 340.445 49.4546V62.7766C393.352 42.2972 441.736 35.2451 477.857 43.2649C477.801 44.19 477.719 45.11 477.719 46.0476C477.719 71.3053 498.193 91.7796 523.448 91.7796C527.788 91.7796 531.964 91.1378 535.938 90.0097C552.068 133.989 528.951 199.795 477.521 266.237C474.081 265.642 470.569 265.271 466.961 265.271C432.786 265.271 405.09 292.971 405.09 327.144C405.09 332.087 405.729 336.86 406.827 341.467C395.686 351.408 383.976 361.176 371.714 370.673C238.499 473.841 91.461 507.018 43.299 444.825C16.7253 410.515 25.8463 354.324 61.709 293.522C64.418 294.337 67.231 294.909 70.204 294.909C86.572 294.909 99.84 281.639 99.84 265.271C99.84 258.455 97.448 252.255 93.579 247.249C118.731 215.222 150.371 183.118 187.376 153.313V139.74C147.389 171.082 112.812 205.079 84.596 239.515C80.32 237.118 75.457 235.637 70.204 235.637C53.837 235.637 40.5689 248.903 40.5689 265.271C40.5689 273.805 44.2256 281.439 49.997 286.844C-0.938992 366.029 -15.2443 442.17 20.377 488.163C68.435 550.194 192.402 538.082 319.685 466.445L319.785 466.397C322.362 465.061 376.548 436.762 438.272 381.932C446.85 386.435 456.6 389.015 466.961 389.015C501.136 389.015 528.833 361.318 528.833 327.144C528.833 315.398 525.501 304.456 519.818 295.102C589.609 204.287 614.005 112.462 573.349 59.9613Z" fill="#F14624"/>
</svg>
