<svg width="860" height="715" viewBox="0 0 860 715" fill="none" xmlns="http://www.w3.org/2000/svg">
<path d="M380.374 26.9216V383.407C339.23 411.171 296.737 432.678 257.176 446.161V26.9216C257.176 22.2386 260.96 18.4581 265.642 18.4581H371.908C376.591 18.4581 380.374 22.2386 380.374 26.9216Z" fill="#2C3892"/>
<path d="M685.18 452.725V542.118C685.18 546.802 681.4 550.582 676.714 550.582H265.432C260.75 550.582 256.966 546.802 256.966 542.118V530.489C295.343 519.772 336.028 502.669 376.49 479.871C378.183 478.965 401.039 467.057 433.546 444.259H676.714C681.4 444.259 685.18 448.044 685.18 452.725Z" fill="#2C3892"/>
<path fill-rule="evenodd" clip-rule="evenodd" d="M625.349 59.9613C623.82 57.9783 622.073 56.2134 620.385 54.3833C620.882 51.6783 621.178 48.9005 621.178 46.0476C621.178 20.79 600.706 0.318211 575.448 0.318211C559.714 0.318211 545.846 8.26774 537.616 20.3638C496.035 17.8168 445.771 27.8195 392.445 49.4546V62.7766C445.352 42.2972 493.736 35.2451 529.857 43.2649C529.801 44.19 529.719 45.11 529.719 46.0476C529.719 71.3053 550.193 91.7796 575.448 91.7796C579.788 91.7796 583.964 91.1378 587.938 90.0097C604.068 133.989 580.951 199.795 529.521 266.237C526.081 265.642 522.569 265.271 518.961 265.271C484.786 265.271 457.09 292.971 457.09 327.144C457.09 332.087 457.729 336.86 458.827 341.467C447.686 351.408 435.976 361.176 423.714 370.673C290.499 473.841 143.461 507.018 95.299 444.825C68.7253 410.515 77.8463 354.324 113.709 293.522C116.418 294.337 119.231 294.909 122.204 294.909C138.572 294.909 151.84 281.639 151.84 265.271C151.84 258.455 149.448 252.255 145.579 247.249C170.731 215.222 202.371 183.118 239.376 153.313V139.74C199.389 171.082 164.812 205.079 136.596 239.515C132.32 237.118 127.457 235.637 122.204 235.637C105.837 235.637 92.5689 248.903 92.5689 265.271C92.5689 273.805 96.2256 281.439 101.997 286.844C51.061 366.029 36.7557 442.17 72.377 488.163C120.435 550.194 244.402 538.082 371.685 466.445L371.785 466.397C374.362 465.061 428.548 436.762 490.272 381.932C498.85 386.435 508.6 389.015 518.961 389.015C553.136 389.015 580.833 361.318 580.833 327.144C580.833 315.398 577.501 304.456 571.818 295.102C641.609 204.287 666.005 112.462 625.349 59.9613" fill="#F14624"/>
<path d="M0.662109 684.398V615.725H23.5989V684.398C23.5989 686.468 24.3261 688.257 25.7806 689.763C27.235 691.257 28.9974 692.004 31.0676 692.004H54.0044V714.803H31.0676C26.8354 714.803 22.8717 713.997 19.1767 712.386C15.4947 710.774 12.2976 708.606 9.58526 705.88C6.85983 703.168 4.69128 699.971 3.07961 696.289C1.46794 692.607 0.662109 688.643 0.662109 684.398ZM59.6649 684.398V646.189C59.6649 641.957 60.4773 637.993 62.1021 634.298C63.7138 630.616 65.8758 627.406 68.5881 624.668C71.3004 621.929 74.5041 619.754 78.1992 618.142C81.8811 616.531 85.8382 615.725 90.0705 615.725H105.342C109.587 615.725 113.551 616.531 117.233 618.142C120.915 619.754 124.125 621.929 126.864 624.668C129.615 627.406 131.797 630.616 133.409 634.298C135.02 637.993 135.826 641.957 135.826 646.189V684.398C135.826 688.643 135.02 692.607 133.409 696.289C131.797 699.971 129.615 703.168 126.864 705.88C124.125 708.606 120.928 710.774 117.272 712.386C113.603 713.997 109.627 714.803 105.342 714.803H90.0705C85.8382 714.803 81.8811 713.997 78.1992 712.386C74.5041 710.774 71.3004 708.606 68.5881 705.88C65.8758 703.168 63.7138 699.971 62.1021 696.289C60.4773 692.607 59.6649 688.643 59.6649 684.398ZM82.4838 646.189V684.398C82.4838 686.468 83.2045 688.257 84.6458 689.763C86.1003 691.257 87.9085 692.004 90.0705 692.004H105.342C107.517 692.004 109.338 691.257 110.806 689.763C112.287 688.257 113.027 686.468 113.027 684.398V646.189C113.027 644.119 112.3 642.344 110.845 640.863C109.391 639.395 107.556 638.662 105.342 638.662H90.0705C87.9085 638.662 86.1003 639.395 84.6458 640.863C83.2045 642.344 82.4838 644.119 82.4838 646.189ZM141.408 684.398V646.189C141.408 641.957 142.22 637.993 143.845 634.298C145.457 630.616 147.619 627.406 150.331 624.668C153.044 621.929 156.247 619.754 159.942 618.142C163.624 616.531 167.581 615.725 171.814 615.725H187.085C191.331 615.725 195.294 616.531 198.976 618.142C202.658 619.754 205.868 621.929 208.607 624.668C211.358 627.406 213.54 630.616 215.152 634.298C216.763 637.993 217.569 641.957 217.569 646.189H194.77C194.77 644.119 194.043 642.344 192.588 640.863C191.134 639.395 189.3 638.662 187.085 638.662H171.814C169.652 638.662 167.843 639.395 166.389 640.863C164.948 642.344 164.227 644.119 164.227 646.189V684.398C164.227 686.468 164.948 688.257 166.389 689.763C167.843 691.257 169.652 692.004 171.814 692.004H187.085C189.26 692.004 191.082 691.257 192.549 689.763C194.03 688.257 194.77 686.468 194.77 684.398V676.732H187.085V653.796H217.569V676.732V684.398C217.569 688.643 216.763 692.607 215.152 696.289C213.54 699.971 211.358 703.168 208.607 705.88C205.868 708.606 202.671 710.774 199.015 712.386C195.347 713.997 191.37 714.803 187.085 714.803H171.814C167.581 714.803 163.624 713.997 159.942 712.386C156.247 710.774 153.044 708.606 150.331 705.88C147.619 703.168 145.457 699.971 143.845 696.289C142.22 692.607 141.408 688.643 141.408 684.398ZM245.97 714.803H223.151L249.626 615.725H249.901H272.563H272.838L299.312 714.803H276.513L261.242 657.943L245.97 714.803ZM327.713 714.803H304.894V646.189C304.894 641.957 305.7 637.993 307.312 634.298C308.937 630.616 311.105 627.406 313.817 624.668C316.53 621.929 319.733 619.754 323.428 618.142C327.11 616.531 331.068 615.725 335.3 615.725H350.571C354.817 615.725 358.78 616.531 362.462 618.142C366.144 619.754 369.355 621.929 372.093 624.668C374.845 627.406 377.026 630.616 378.638 634.298C380.25 637.993 381.055 641.957 381.055 646.189V714.803H358.256V646.189C358.256 644.119 357.529 642.324 356.075 640.804C354.62 639.284 352.786 638.524 350.571 638.524H335.3C333.138 638.524 331.33 639.284 329.875 640.804C328.434 642.324 327.713 644.119 327.713 646.189V714.803ZM437.857 714.803H415.038V615.725H437.857H460.715C464.961 615.725 468.924 616.531 472.606 618.142C476.288 619.754 479.498 621.929 482.237 624.668C484.975 627.406 487.157 630.616 488.782 634.298C490.394 637.993 491.199 641.957 491.199 646.189C491.199 649.78 490.61 653.199 489.43 656.449C488.251 659.699 486.626 662.634 484.556 665.254C486.626 667.888 488.251 670.836 489.43 674.099C490.61 677.375 491.199 680.807 491.199 684.398V714.803H468.38V684.398C468.38 682.236 467.66 680.414 466.218 678.934C464.764 677.466 462.93 676.732 460.715 676.732H437.857V714.803ZM437.857 638.662V653.796H460.715C462.877 653.796 464.699 653.068 466.179 651.614C467.647 650.16 468.38 648.351 468.38 646.189C468.38 644.119 467.66 642.344 466.218 640.863C464.764 639.395 462.93 638.662 460.715 638.662H437.857ZM547.981 714.803H525.182V615.725H547.981H570.859C575.104 615.725 579.068 616.531 582.75 618.142C586.432 619.754 589.642 621.929 592.381 624.668C595.119 627.406 597.294 630.616 598.906 634.298C600.518 637.993 601.324 641.957 601.324 646.189V684.398C601.324 688.643 600.518 692.607 598.906 696.289C597.294 699.971 595.119 703.168 592.381 705.88C589.642 708.606 586.445 710.774 582.789 712.386C579.121 713.997 575.144 714.803 570.859 714.803H547.981ZM547.981 638.662V692.004H570.859C573.021 692.004 574.842 691.257 576.323 689.763C577.791 688.257 578.524 686.468 578.524 684.398V646.189C578.524 644.119 577.804 642.344 576.362 640.863C574.908 639.395 573.073 638.662 570.859 638.662H547.981ZM629.724 714.803H606.925L633.4 615.725H633.675H656.337H656.612L683.067 714.803H660.267L644.996 657.943L629.724 714.803ZM699.596 714.803L673.121 615.725H695.921L711.192 672.644L726.464 615.725H749.263L722.808 714.803H722.533H699.871H699.596ZM777.664 714.803H754.865V615.725H777.664V714.803ZM828.942 714.803H783.265V692.004H828.942C831.104 691.912 832.926 691.139 834.406 689.685C835.874 688.23 836.608 686.468 836.608 684.398C836.608 682.236 835.88 680.414 834.426 678.934C832.985 677.466 831.157 676.732 828.942 676.732H813.671C809.439 676.732 805.475 675.927 801.78 674.315C798.098 672.703 794.901 670.515 792.189 667.75C789.463 664.986 787.295 661.762 785.683 658.08C784.071 654.385 783.265 650.422 783.265 646.189C783.265 641.957 784.071 637.993 785.683 634.298C787.295 630.616 789.463 627.406 792.189 624.668C794.901 621.929 798.098 619.754 801.78 618.142C805.475 616.531 809.439 615.725 813.671 615.725H844.135V638.662H813.671C811.509 638.662 809.701 639.395 808.246 640.863C806.792 642.344 806.065 644.119 806.065 646.189C806.065 648.351 806.792 650.16 808.246 651.614C809.701 653.068 811.509 653.796 813.671 653.796H828.942C833.175 653.796 837.138 654.601 840.833 656.213C844.515 657.825 847.726 660.02 850.464 662.797C853.203 665.588 855.378 668.825 856.989 672.507C858.601 676.202 859.407 680.165 859.407 684.398C859.407 688.643 858.601 692.607 856.989 696.289C855.378 699.971 853.203 703.168 850.464 705.88C847.726 708.606 844.522 710.774 840.853 712.386C837.197 713.997 833.227 714.803 828.942 714.803Z" fill="#F14624"/>
</svg>
