<?xml version="1.0" encoding="UTF-8" standalone="no" ?>
<!DOCTYPE svg PUBLIC "-//W3C//DTD SVG 1.1//EN" "http://www.w3.org/Graphics/SVG/1.1/DTD/svg11.dtd">
<svg xmlns="http://www.w3.org/2000/svg" xmlns:xlink="http://www.w3.org/1999/xlink" version="1.1" width="1280" height="1024" viewBox="0 0 1280 1024" xml:space="preserve">
<desc>Created with Fabric.js 3.1.0</desc>
<defs>
</defs>
<g transform="matrix(1 0 0 1 640 512)" id="background-logo"  >
<rect style="stroke: none; stroke-width: 1; stroke-dasharray: none; stroke-linecap: butt; stroke-dashoffset: 0; stroke-linejoin: miter; stroke-miterlimit: 4; fill: rgb(255,255,255); fill-rule: nonzero; opacity: 1;"  paint-order="stroke"  x="-640" y="-512" rx="0" ry="0" width="1280" height="1024" />
</g>
<g transform="matrix(1.965451055662188 0 0 1.965451055662188 578.9223935454521 423.45004142572594)" style="" id="logo-logo"  >
	<g transform="matrix(0.1275514204685395 0 0 -0.1275514204685395 -25.514386243497484 -21.949370173469816)"  >
<path style="stroke: none; stroke-width: 1; stroke-dasharray: none; stroke-linecap: butt; stroke-dashoffset: 0; stroke-linejoin: miter; stroke-miterlimit: 4; fill: rgb(44,56,146); fill-rule: nonzero; opacity: 1;"  paint-order="stroke"  transform=" translate(-1067.6795000000002, -1265.429)" d="M 1313.39 2084.7 V 662.719 C 1149.27 551.969 979.773 466.18 821.969 412.398 V 2084.7 c 0 18.68 15.094 33.76 33.769 33.76 h 423.882 c 18.68 0 33.77 -15.08 33.77 -33.76" stroke-linecap="round" />
</g>
	<g transform="matrix(0.1275514204685395 0 0 -0.1275514204685395 51.97310362832752 112.93626034415146)"  >
<path style="stroke: none; stroke-width: 1; stroke-dasharray: none; stroke-linecap: butt; stroke-dashoffset: 0; stroke-linejoin: miter; stroke-miterlimit: 4; fill: rgb(44,56,146); fill-rule: nonzero; opacity: 1;"  paint-order="stroke"  transform=" translate(-1676.0195, -212.0545)" d="M 2530.07 390.34 V 33.7617 C 2530.07 15.0781 2514.99 0 2496.3 0 H 855.738 c -18.675 0 -33.769 15.0781 -33.769 33.7617 v 46.3867 c 153.082 42.7496 315.371 110.9726 476.771 201.9106 c 6.75 3.613 97.92 51.113 227.59 142.05 h 969.97 c 18.69 0 33.77 -15.097 33.77 -33.769" stroke-linecap="round" />
</g>
	<g transform="matrix(0.1275514204685395 0 0 -0.1275514204685395 -10.2082154046185 -5.68656365716086)"  >
<path style="stroke: none; stroke-width: 1; stroke-dasharray: none; stroke-linecap: butt; stroke-dashoffset: 0; stroke-linejoin: miter; stroke-miterlimit: 4; fill: rgb(241,70,36); fill-rule: evenodd; opacity: 1;"  paint-order="stroke"  transform=" translate(-1181.4884157831466, -1138.270515230515)" d="m 2284.38 1953.25 c -6.1 7.91 -13.07 14.95 -19.8 22.25 c 1.98 10.79 3.16 21.87 3.16 33.25 c 0 100.75 -81.66 182.41 -182.41 182.41 c -62.76 0 -118.08 -31.71 -150.91 -79.96 c -165.86 10.16 -366.36 -29.74 -579.07 -116.04 v -53.14 c 211.04 81.69 404.04 109.82 548.12 77.83 c -0.22 -3.69 -0.55 -7.36 -0.55 -11.1 c 0 -100.75 81.67 -182.42 182.41 -182.42 c 17.31 0 33.97 2.56 49.82 7.06 c 64.34 -175.43 -27.87 -437.92 -233.02 -702.95 c -13.72 2.37 -27.73 3.85 -42.12 3.85 c -136.32 0 -246.8 -110.49 -246.8 -246.802 c 0 -19.718 2.55 -38.758 6.93 -57.136 c -44.44 -39.653 -91.15 -78.614 -140.06 -116.5 C 948.699 302.328 362.18 169.988 170.066 418.07 c -105.9996 136.86 -69.617 361 73.434 603.53 c 10.809 -3.25 22.027 -5.53 33.887 -5.53 c 65.289 0 118.215 52.93 118.215 118.22 c 0 27.19 -9.543 51.92 -24.973 71.89 c 100.328 127.75 226.535 255.81 374.144 374.7 v 54.14 C 585.27 1510 447.348 1374.39 334.797 1237.03 c -17.059 9.56 -36.457 15.47 -57.41 15.47 c -65.285 0 -118.211 -52.92 -118.211 -118.21 c 0 -34.04 14.586 -64.49 37.609 -86.05 C -6.39453 732.379 -63.457 428.66 78.6328 245.199 C 270.332 -2.23828 764.824 46.0781 1272.54 331.828 l 0.4 0.192 c 10.28 5.332 226.42 118.21 472.63 336.921 c 34.22 -17.961 73.11 -28.25 114.44 -28.25 c 136.32 0 246.8 110.481 246.8 246.797 c 0 46.852 -13.29 90.5 -35.96 127.812 c 278.39 362.25 375.7 728.53 213.53 937.95" stroke-linecap="round" />
</g>
</g>
<g transform="matrix(1.965451055662188 0 0 1.965451055662188 640.0345489443378 813.2640659622502)" id="text-logo-path"  >
<path style="stroke: none; stroke-width: 0; stroke-dasharray: none; stroke-linecap: butt; stroke-dashoffset: 0; stroke-linejoin: miter; stroke-miterlimit: 4; fill: rgb(241,70,36); fill-rule: nonzero; opacity: 1;"  paint-order="stroke"  transform=" translate(-219.9, 25.205)" d="M 1.44 -15.47 L 1.44 -15.47 L 1.44 -50.41 L 13.11 -50.41 L 13.11 -15.47 Q 13.11 -13.89 14.22 -12.74 Q 15.33 -11.6 16.91 -11.6 L 16.91 -11.6 L 28.58 -11.6 L 28.58 0 L 16.91 0 Q 13.68 0 10.86 -1.23 Q 8.05 -2.46 5.98 -4.54 Q 3.9 -6.61 2.67 -9.42 Q 1.44 -12.23 1.44 -15.47 Z M 31.46 -15.47 L 31.46 -15.47 L 31.46 -34.91 Q 31.46 -38.14 32.7 -40.96 Q 33.93 -43.77 36 -45.86 Q 38.07 -47.95 40.89 -49.18 Q 43.7 -50.41 46.93 -50.41 L 46.93 -50.41 L 54.7 -50.41 Q 57.94 -50.41 60.75 -49.18 Q 63.56 -47.95 65.65 -45.86 Q 67.75 -43.77 68.98 -40.96 Q 70.21 -38.14 70.21 -34.91 L 70.21 -34.91 L 70.21 -15.47 Q 70.21 -12.23 68.98 -9.42 Q 67.75 -6.61 65.65 -4.54 Q 63.56 -2.46 60.77 -1.23 Q 57.97 0 54.7 0 L 54.7 0 L 46.93 0 Q 43.7 0 40.89 -1.23 Q 38.07 -2.46 36 -4.54 Q 33.93 -6.61 32.7 -9.42 Q 31.46 -12.23 31.46 -15.47 Z M 43.07 -34.91 L 43.07 -15.47 Q 43.07 -13.89 44.17 -12.74 Q 45.28 -11.6 46.93 -11.6 L 46.93 -11.6 L 54.7 -11.6 Q 56.36 -11.6 57.48 -12.74 Q 58.61 -13.89 58.61 -15.47 L 58.61 -15.47 L 58.61 -34.91 Q 58.61 -36.49 57.5 -37.62 Q 56.39 -38.74 54.7 -38.74 L 54.7 -38.74 L 46.93 -38.74 Q 45.28 -38.74 44.17 -37.62 Q 43.07 -36.49 43.07 -34.91 L 43.07 -34.91 Z M 73.05 -15.47 L 73.05 -15.47 L 73.05 -34.91 Q 73.05 -38.14 74.29 -40.96 Q 75.52 -43.77 77.59 -45.86 Q 79.66 -47.95 82.48 -49.18 Q 85.29 -50.41 88.52 -50.41 L 88.52 -50.41 L 96.29 -50.41 Q 99.53 -50.41 102.34 -49.18 Q 105.15 -47.95 107.24 -45.86 Q 109.34 -43.77 110.57 -40.96 Q 111.8 -38.14 111.8 -34.91 L 111.8 -34.91 L 100.2 -34.91 Q 100.2 -36.49 99.09 -37.62 Q 97.98 -38.74 96.29 -38.74 L 96.29 -38.74 L 88.52 -38.74 Q 86.87 -38.74 85.76 -37.62 Q 84.66 -36.49 84.66 -34.91 L 84.66 -34.91 L 84.66 -15.47 Q 84.66 -13.89 85.76 -12.74 Q 86.87 -11.6 88.52 -11.6 L 88.52 -11.6 L 96.29 -11.6 Q 97.95 -11.6 99.07 -12.74 Q 100.2 -13.89 100.2 -15.47 L 100.2 -15.47 L 100.2 -19.37 L 96.29 -19.37 L 96.29 -31.04 L 111.8 -31.04 L 111.8 -19.37 L 111.8 -15.47 Q 111.8 -12.23 110.57 -9.42 Q 109.34 -6.61 107.24 -4.54 Q 105.15 -2.46 102.36 -1.23 Q 99.56 0 96.29 0 L 96.29 0 L 88.52 0 Q 85.29 0 82.48 -1.23 Q 79.66 -2.46 77.59 -4.54 Q 75.52 -6.61 74.29 -9.42 Q 73.05 -12.23 73.05 -15.47 Z M 126.25 0 L 114.64 0 L 128.11 -50.41 L 128.25 -50.41 L 139.78 -50.41 L 139.92 -50.41 L 153.39 0 L 141.79 0 L 134.02 -28.93 L 126.25 0 Z M 167.84 0 L 156.23 0 L 156.23 -34.91 Q 156.23 -38.14 157.46 -40.96 Q 158.7 -43.77 160.77 -45.86 Q 162.84 -47.95 165.66 -49.18 Q 168.47 -50.41 171.7 -50.41 L 171.7 -50.41 L 179.47 -50.41 Q 182.71 -50.41 185.52 -49.18 Q 188.33 -47.95 190.42 -45.86 Q 192.52 -43.77 193.75 -40.96 Q 194.98 -38.14 194.98 -34.91 L 194.98 -34.91 L 194.98 0 L 183.38 0 L 183.38 -34.91 Q 183.38 -36.49 182.27 -37.65 Q 181.16 -38.81 179.47 -38.81 L 179.47 -38.81 L 171.7 -38.81 Q 170.05 -38.81 168.94 -37.65 Q 167.84 -36.49 167.84 -34.91 L 167.84 -34.91 L 167.84 0 Z M 223.88 0 L 212.27 0 L 212.27 -50.41 L 223.88 -50.41 L 235.51 -50.41 Q 238.75 -50.41 241.56 -49.18 Q 244.37 -47.95 246.46 -45.86 Q 248.55 -43.77 249.79 -40.96 Q 251.02 -38.14 251.02 -34.91 L 251.02 -34.91 Q 251.02 -32.17 250.12 -29.69 Q 249.22 -27.21 247.64 -25.21 L 247.64 -25.21 Q 249.22 -23.2 250.12 -20.71 Q 251.02 -18.21 251.02 -15.47 L 251.02 -15.47 L 251.02 0 L 239.41 0 L 239.41 -15.47 Q 239.41 -17.12 238.31 -18.25 Q 237.2 -19.37 235.51 -19.37 L 235.51 -19.37 L 223.88 -19.37 L 223.88 0 Z M 223.88 -38.74 L 223.88 -31.04 L 235.51 -31.04 Q 237.16 -31.04 238.29 -32.15 Q 239.41 -33.26 239.41 -34.91 L 239.41 -34.91 Q 239.41 -36.49 238.31 -37.62 Q 237.2 -38.74 235.51 -38.74 L 235.51 -38.74 L 223.88 -38.74 Z M 279.91 0 L 268.31 0 L 268.31 -50.41 L 279.91 -50.41 L 291.55 -50.41 Q 294.79 -50.41 297.6 -49.18 Q 300.41 -47.95 302.5 -45.86 Q 304.59 -43.77 305.82 -40.96 Q 307.05 -38.14 307.05 -34.91 L 307.05 -34.91 L 307.05 -15.47 Q 307.05 -12.23 305.82 -9.42 Q 304.59 -6.61 302.5 -4.54 Q 300.41 -2.46 297.62 -1.23 Q 294.82 0 291.55 0 L 291.55 0 L 279.91 0 Z M 279.91 -38.74 L 279.91 -11.6 L 291.55 -11.6 Q 293.2 -11.6 294.33 -12.74 Q 295.45 -13.89 295.45 -15.47 L 295.45 -15.47 L 295.45 -34.91 Q 295.45 -36.49 294.35 -37.62 Q 293.24 -38.74 291.55 -38.74 L 291.55 -38.74 L 279.91 -38.74 Z M 321.5 0 L 309.9 0 L 323.37 -50.41 L 323.51 -50.41 L 335.04 -50.41 L 335.18 -50.41 L 348.64 0 L 337.04 0 L 329.27 -28.93 L 321.5 0 Z M 357.05 0 L 343.58 -50.41 L 355.18 -50.41 L 362.95 -21.45 L 370.72 -50.41 L 382.32 -50.41 L 368.86 0 L 368.72 0 L 357.19 0 L 357.05 0 Z M 396.77 0 L 385.17 0 L 385.17 -50.41 L 396.77 -50.41 L 396.77 0 Z M 422.86 0 L 399.62 0 L 399.62 -11.6 L 422.86 -11.6 Q 424.51 -11.67 425.64 -12.78 Q 426.76 -13.89 426.76 -15.47 L 426.76 -15.47 Q 426.76 -17.12 425.65 -18.25 Q 424.55 -19.37 422.86 -19.37 L 422.86 -19.37 L 415.09 -19.37 Q 411.86 -19.37 409.04 -20.6 Q 406.23 -21.83 404.16 -23.94 Q 402.08 -26.05 400.85 -28.86 Q 399.62 -31.68 399.62 -34.91 L 399.62 -34.91 Q 399.62 -38.14 400.85 -40.96 Q 402.08 -43.77 404.16 -45.86 Q 406.23 -47.95 409.04 -49.18 Q 411.86 -50.41 415.09 -50.41 L 415.09 -50.41 L 430.59 -50.41 L 430.59 -38.74 L 415.09 -38.74 Q 413.44 -38.74 412.33 -37.62 Q 411.22 -36.49 411.22 -34.91 L 411.22 -34.91 Q 411.22 -33.26 412.33 -32.15 Q 413.44 -31.04 415.09 -31.04 L 415.09 -31.04 L 422.86 -31.04 Q 426.09 -31.04 428.91 -29.81 Q 431.72 -28.58 433.81 -26.46 Q 435.9 -24.33 437.13 -21.52 Q 438.36 -18.7 438.36 -15.47 L 438.36 -15.47 Q 438.36 -12.23 437.13 -9.42 Q 435.9 -6.61 433.81 -4.54 Q 431.72 -2.46 428.92 -1.23 Q 426.13 0 422.86 0 L 422.86 0 Z" stroke-linecap="round" />
</g>
</svg>