<?xml version="1.0" standalone="no"?>
<!DOCTYPE svg PUBLIC "-//W3C//DTD SVG 20010904//EN"
 "http://www.w3.org/TR/2001/REC-SVG-20010904/DTD/svg10.dtd">
<svg version="1.0" xmlns="http://www.w3.org/2000/svg"
 width="64.000000pt" height="64.000000pt" viewBox="0 0 64.000000 64.000000"
 preserveAspectRatio="xMidYMid meet">
<metadata>
Created by potrace 1.15, written by Peter Selinger 2001-2017
</metadata>
<g transform="translate(0.000000,64.000000) scale(0.100000,-0.100000)"
fill="#000000" stroke="none">
<path d="M84 554 c-23 -22 -25 -30 -20 -72 4 -26 9 -72 12 -102 7 -68 16 -78
48 -56 24 15 28 15 52 0 33 -22 41 -12 47 56 3 30 9 70 12 88 l7 32 119 0 119
0 0 -189 c0 -104 -3 -196 -6 -205 -3 -9 -14 -16 -24 -16 -19 0 -30 19 -30 51
0 18 -9 19 -130 19 l-130 0 0 70 c0 40 -4 70 -10 70 -6 0 -10 -30 -10 -70 l0
-70 -40 0 c-40 0 -40 0 -40 -38 0 -21 5 -43 12 -50 9 -9 69 -12 208 -12 139 0
199 3 208 12 8 8 12 63 12 180 l0 168 40 0 c40 0 40 0 40 38 0 21 -5 43 -12
50 -8 8 -60 12 -168 12 l-156 0 -22 30 c-19 26 -29 30 -68 30 -35 0 -51 -6
-70 -26z m316 -444 l0 -30 -144 0 c-118 0 -147 3 -160 16 -9 8 -16 22 -16 30
0 12 28 14 160 14 l160 0 0 -30z"/>
</g>
</svg>
